<svg width="24" height="24" viewBox="0 0 24 24" fill="none" xmlns="http://www.w3.org/2000/svg">
<path d="M8.84863 2C11.4209 2.00007 13.5137 4.09278 13.5137 6.66504C13.5137 8.11884 12.8445 9.41918 11.7988 10.2754C13.2613 10.6256 14.5773 11.4512 15.5342 12.6387C16.1207 12.3577 16.7772 12.2003 17.4697 12.2002C19.9481 12.2002 21.9646 14.216 21.9648 16.6943C21.9648 19.1729 19.9483 21.1895 17.4697 21.1895C15.2854 21.1892 13.46 19.6231 13.0576 17.5547H0.666992V16.9326C0.66719 13.7128 2.90171 11.0051 5.90137 10.2783C4.85365 9.42215 4.1836 8.12045 4.18359 6.66504C4.18359 4.09274 6.27637 2 8.84863 2ZM17.4697 13.4434C15.6771 13.4436 14.219 14.9018 14.2188 16.6943C14.2188 18.4871 15.677 19.946 17.4697 19.9463C19.2626 19.9463 20.7217 18.4873 20.7217 16.6943C20.7214 14.9016 19.2625 13.4434 17.4697 13.4434ZM18.2109 14.9229V18.5137H17.001V15.8359H16.3848V14.9229H18.2109ZM7.51367 11.3301C4.63421 11.3301 2.25457 13.5135 1.94434 16.3115H12.9922C13.0926 15.1286 13.6526 14.0746 14.4932 13.3301C13.4334 12.0686 11.8693 11.3302 10.2031 11.3301H7.51367ZM8.84863 3.24316C6.962 3.24316 5.42677 4.77841 5.42676 6.66504C5.42676 8.55168 6.96199 10.0869 8.84863 10.0869C10.7352 10.0869 12.2705 8.55165 12.2705 6.66504C12.2705 4.77844 10.7352 3.24321 8.84863 3.24316Z" fill="white"/>
<path d="M8.84863 2L8.84864 1.75H8.84863V2ZM13.5137 6.66504L13.7637 6.66504V6.66504H13.5137ZM11.7988 10.2754L11.6404 10.082L11.2506 10.4012L11.7406 10.5185L11.7988 10.2754ZM15.5342 12.6387L15.3395 12.7955L15.4637 12.9497L15.6422 12.8641L15.5342 12.6387ZM17.4697 12.2002V11.9502H17.4697L17.4697 12.2002ZM21.9648 16.6943H22.2148V16.6943L21.9648 16.6943ZM17.4697 21.1895L17.4697 21.4395H17.4697V21.1895ZM13.0576 17.5547L13.303 17.5069L13.2637 17.3047H13.0576V17.5547ZM0.666992 17.5547H0.416992V17.8047H0.666992V17.5547ZM0.666992 16.9326L0.416992 16.9326V16.9326H0.666992ZM5.90137 10.2783L5.96023 10.5213L6.4489 10.4029L6.05956 10.0847L5.90137 10.2783ZM4.18359 6.66504H3.93359V6.66504L4.18359 6.66504ZM17.4697 13.4434V13.1934H17.4697L17.4697 13.4434ZM14.2188 16.6943L13.9688 16.6943V16.6943H14.2188ZM17.4697 19.9463L17.4697 20.1963H17.4697V19.9463ZM20.7217 16.6943H20.9717V16.6943L20.7217 16.6943ZM18.2109 14.9229H18.4609V14.6729H18.2109V14.9229ZM18.2109 18.5137V18.7637H18.4609V18.5137H18.2109ZM17.001 18.5137H16.751V18.7637H17.001V18.5137ZM17.001 15.8359H17.251V15.5859H17.001V15.8359ZM16.3848 15.8359H16.1348V16.0859H16.3848V15.8359ZM16.3848 14.9229V14.6729H16.1348V14.9229H16.3848ZM1.94434 16.3115L1.69586 16.284L1.66508 16.5615H1.94434V16.3115ZM12.9922 16.3115V16.5615H13.2219L13.2413 16.3327L12.9922 16.3115ZM14.4932 13.3301L14.6589 13.5172L14.8412 13.3557L14.6846 13.1693L14.4932 13.3301ZM10.2031 11.3301L10.2031 11.0801H10.2031V11.3301ZM8.84863 3.24316L8.84864 2.99316H8.84863V3.24316ZM5.42676 6.66504L5.17676 6.66504V6.66504H5.42676ZM8.84863 10.0869V10.3369H8.84864L8.84863 10.0869ZM12.2705 6.66504H12.5205V6.66504L12.2705 6.66504ZM8.84863 2L8.84863 2.25C11.2828 2.25007 13.2637 4.23086 13.2637 6.66504H13.5137H13.7637C13.7637 3.9547 11.5589 1.75007 8.84864 1.75L8.84863 2ZM13.5137 6.66504L13.2637 6.66504C13.2637 8.04038 12.6309 9.27097 11.6404 10.082L11.7988 10.2754L11.9572 10.4688C13.0581 9.5674 13.7637 8.1973 13.7637 6.66504L13.5137 6.66504ZM11.7988 10.2754L11.7406 10.5185C13.1495 10.8559 14.4175 11.6513 15.3395 12.7955L15.5342 12.6387L15.7288 12.4818C14.7371 11.2511 13.373 10.3953 11.857 10.0323L11.7988 10.2754ZM15.5342 12.6387L15.6422 12.8641C16.1957 12.5989 16.8154 12.4503 17.4698 12.4502L17.4697 12.2002L17.4697 11.9502C16.7389 11.9503 16.0456 12.1164 15.4262 12.4132L15.5342 12.6387ZM17.4697 12.2002V12.4502C19.8101 12.4502 21.7146 14.3541 21.7148 16.6944L21.9648 16.6943L22.2148 16.6943C22.2146 14.0778 20.0861 11.9502 17.4697 11.9502V12.2002ZM21.9648 16.6943H21.7148C21.7148 19.0348 19.8102 20.9395 17.4697 20.9395V21.1895V21.4395C20.0863 21.4395 22.2148 19.311 22.2148 16.6943H21.9648ZM17.4697 21.1895L17.4698 20.9395C15.4075 20.9392 13.683 19.4603 13.303 17.5069L13.0576 17.5547L12.8122 17.6024C13.237 19.7859 15.1633 21.4392 17.4697 21.4395L17.4697 21.1895ZM13.0576 17.5547V17.3047H0.666992V17.5547V17.8047H13.0576V17.5547ZM0.666992 17.5547H0.916992V16.9326H0.666992H0.416992V17.5547H0.666992ZM0.666992 16.9326L0.916992 16.9326C0.917183 13.831 3.0699 11.2215 5.96023 10.5213L5.90137 10.2783L5.8425 10.0353C2.73352 10.7886 0.417197 13.5945 0.416992 16.9326L0.666992 16.9326ZM5.90137 10.2783L6.05956 10.0847C5.06723 9.27383 4.4336 8.04198 4.43359 6.66504L4.18359 6.66504L3.93359 6.66504C3.9336 8.19893 4.64007 9.57047 5.74317 10.4719L5.90137 10.2783ZM4.18359 6.66504H4.43359C4.43359 4.23081 6.41444 2.25 8.84863 2.25V2V1.75C6.1383 1.75 3.93359 3.95467 3.93359 6.66504H4.18359ZM17.4697 13.4434L17.4697 13.1934C15.5391 13.1936 13.969 14.7637 13.9688 16.6943L14.2188 16.6943L14.4688 16.6944C14.469 15.0399 15.8152 13.6936 17.4698 13.6934L17.4697 13.4434ZM14.2188 16.6943H13.9688C13.9688 18.6251 15.5388 20.196 17.4697 20.1963L17.4697 19.9463L17.4698 19.6963C15.8151 19.6961 14.4688 18.3491 14.4688 16.6943H14.2188ZM17.4697 19.9463V20.1963C19.4007 20.1963 20.9717 18.6253 20.9717 16.6943H20.7217H20.4717C20.4717 18.3492 19.1246 19.6963 17.4697 19.6963V19.9463ZM20.7217 16.6943L20.9717 16.6943C20.9714 14.7635 19.4005 13.1934 17.4697 13.1934V13.4434V13.6934C19.1245 13.6934 20.4715 15.0398 20.4717 16.6944L20.7217 16.6943ZM18.2109 14.9229H17.9609V18.5137H18.2109H18.4609V14.9229H18.2109ZM18.2109 18.5137V18.2637H17.001V18.5137V18.7637H18.2109V18.5137ZM17.001 18.5137H17.251V15.8359H17.001H16.751V18.5137H17.001ZM17.001 15.8359V15.5859H16.3848V15.8359V16.0859H17.001V15.8359ZM16.3848 15.8359H16.6348V14.9229H16.3848H16.1348V15.8359H16.3848ZM16.3848 14.9229V15.1729H18.2109V14.9229V14.6729H16.3848V14.9229ZM7.51367 11.3301V11.0801C4.50529 11.0801 2.01997 13.3608 1.69586 16.284L1.94434 16.3115L2.19281 16.3391C2.48918 13.6661 4.76313 11.5801 7.51367 11.5801V11.3301ZM1.94434 16.3115V16.5615H12.9922V16.3115V16.0615H1.94434V16.3115ZM12.9922 16.3115L13.2413 16.3327C13.3361 15.2162 13.8646 14.2209 14.6589 13.5172L14.4932 13.3301L14.3274 13.1429C13.4407 13.9284 12.8492 15.041 12.7431 16.2904L12.9922 16.3115ZM14.4932 13.3301L14.6846 13.1693C13.5777 11.8517 11.9437 11.0802 10.2031 11.0801L10.2031 11.3301L10.2031 11.5801C11.7949 11.5802 13.2892 12.2856 14.3017 13.4909L14.4932 13.3301ZM10.2031 11.3301V11.0801H7.51367V11.3301V11.5801H10.2031V11.3301ZM8.84863 3.24316V2.99316C6.82393 2.99316 5.17677 4.64034 5.17676 6.66504L5.42676 6.66504L5.67676 6.66504C5.67677 4.91648 7.10007 3.49316 8.84863 3.49316V3.24316ZM5.42676 6.66504H5.17676C5.17676 8.68975 6.82392 10.3369 8.84863 10.3369V10.0869V9.83691C7.10006 9.83691 5.67676 8.41361 5.67676 6.66504H5.42676ZM8.84863 10.0869L8.84864 10.3369C10.8733 10.3369 12.5205 8.68973 12.5205 6.66504H12.2705H12.0205C12.0205 8.41357 10.5972 9.83687 8.84863 9.83691L8.84863 10.0869ZM12.2705 6.66504L12.5205 6.66504C12.5205 4.64036 10.8733 2.99322 8.84864 2.99316L8.84863 3.24316L8.84863 3.49316C10.5972 3.49321 12.0205 4.91651 12.0205 6.66504L12.2705 6.66504Z" fill="white"/>
</svg>
