<svg width="24" height="25" viewBox="0 0 24 25" fill="none" xmlns="http://www.w3.org/2000/svg">
<g clip-path="url(#clip0_4057_3138)">
<path fill-rule="evenodd" clip-rule="evenodd" d="M10.404 22.6845C4.66517 22.6845 0 18.0193 0 12.2805C0 6.54162 4.66517 1.8764 10.404 1.8764C13.0356 1.8764 15.5052 2.83221 17.4292 4.5959C16.7892 4.97432 16.1716 5.39348 15.5776 5.84719C14.1198 4.67109 12.3071 4.02354 10.404 4.02354C5.85589 4.02354 2.14714 7.73235 2.14714 12.2805C2.14714 16.8286 5.85589 20.5374 10.404 20.5374C16.7323 20.5374 20.4895 13.7729 17.7676 8.51348C18.1801 8.12986 18.6047 7.75803 19.0405 7.39861C19.1692 7.29248 19.299 7.18734 19.4297 7.08325C20.3402 8.65588 20.8082 10.4389 20.8082 12.2804C20.8081 18.0193 16.1429 22.6845 10.404 22.6845Z" fill="#34A853"/>
<path fill-rule="evenodd" clip-rule="evenodd" d="M10.6772 17.629C10.5601 17.629 10.4625 17.5509 10.4235 17.4533C10.404 17.4143 8.72523 13.0809 6.12908 11.4412C5.62156 11.1289 5.23124 10.797 5.38737 10.0552C5.54349 9.33302 6.03153 8.9231 6.90988 8.72788C8.47144 8.39603 10.1501 10.8165 10.7748 11.8121C12.961 8.63033 17.3334 3.6332 23.6969 3.04761C24.0039 3.01163 24.1174 3.46667 23.8335 3.59417C23.7359 3.6332 14.6396 7.79101 10.9504 17.4728C10.8919 17.5704 10.7943 17.629 10.6772 17.629Z" fill="#34A853"/>
</g>
<defs>
<clipPath id="clip0_4057_3138">
<rect width="24" height="24" fill="white" transform="translate(0 0.280518)"/>
</clipPath>
</defs>
</svg>
