<svg width="49" height="48" viewBox="0 0 49 48" fill="none" xmlns="http://www.w3.org/2000/svg">
<path d="M21.4639 19.3813L21.5967 19.3882C21.9035 19.4195 22.1919 19.5571 22.4102 19.7788L23.1113 20.4917L23.2021 20.5942C23.596 21.0851 23.5911 21.7893 23.1895 22.2739L23.0967 22.3735C22.6703 22.7933 22.0337 22.8658 21.5332 22.5962C21.4757 22.7647 21.5126 22.964 21.6406 23.0942L24.9434 26.4556L25.0098 26.5112C25.0802 26.559 25.1633 26.5843 25.251 26.5845H25.252C25.288 26.5844 25.3226 26.5782 25.3564 26.5698C24.9109 26.0436 24.9391 25.2559 25.4385 24.7642L25.54 24.6733C26.0659 24.2511 26.8369 24.287 27.3203 24.7778L28.2168 25.689L28.3066 25.7896C28.6977 26.2761 28.6965 26.9734 28.3037 27.4585L28.2129 27.5591L27.4482 28.3306C26.8632 28.9207 26.0828 29.2456 25.252 29.2456H25.2451C24.4637 29.2439 23.7275 28.9551 23.1572 28.4292L23.0449 28.3208L19.7422 24.9595C18.544 23.74 18.5484 21.7615 19.752 20.5474L20.5166 19.7759L20.6143 19.686C20.8515 19.4902 21.1506 19.3814 21.4609 19.3813H21.4639Z" fill="#FAC800"/>
<path d="M21.4639 19.3813L21.5967 19.3882C21.9035 19.4195 22.1919 19.5571 22.4102 19.7788L23.1113 20.4917L23.2021 20.5942C23.596 21.0851 23.5911 21.7893 23.1895 22.2739L23.0967 22.3735C22.6703 22.7933 22.0337 22.8658 21.5332 22.5962C21.4757 22.7647 21.5126 22.964 21.6406 23.0942L24.9434 26.4556L25.0098 26.5112C25.0802 26.559 25.1633 26.5843 25.251 26.5845H25.252C25.288 26.5844 25.3226 26.5782 25.3564 26.5698C24.9109 26.0436 24.9391 25.2559 25.4385 24.7642L25.54 24.6733C26.0659 24.2511 26.8369 24.287 27.3203 24.7778L28.2168 25.689L28.3066 25.7896C28.6977 26.2761 28.6965 26.9734 28.3037 27.4585L28.2129 27.5591L27.4482 28.3306C26.8632 28.9207 26.0828 29.2456 25.252 29.2456H25.2451C24.4637 29.2439 23.7275 28.9551 23.1572 28.4292L23.0449 28.3208L19.7422 24.9595C18.544 23.74 18.5484 21.7615 19.752 20.5474L20.5166 19.7759L20.6143 19.686C20.8515 19.4902 21.1506 19.3814 21.4609 19.3813H21.4639Z" fill="black" fill-opacity="0.2"/>
<path d="M21.4639 19.3813L21.5967 19.3882C21.9035 19.4195 22.1919 19.5571 22.4102 19.7788L23.1113 20.4917L23.2021 20.5942C23.596 21.0851 23.5911 21.7893 23.1895 22.2739L23.0967 22.3735C22.6703 22.7933 22.0337 22.8658 21.5332 22.5962C21.4757 22.7647 21.5126 22.964 21.6406 23.0942L24.9434 26.4556L25.0098 26.5112C25.0802 26.559 25.1633 26.5843 25.251 26.5845H25.252C25.288 26.5844 25.3226 26.5782 25.3564 26.5698C24.9109 26.0436 24.9391 25.2559 25.4385 24.7642L25.54 24.6733C26.0659 24.2511 26.8369 24.287 27.3203 24.7778L28.2168 25.689L28.3066 25.7896C28.6977 26.2761 28.6965 26.9734 28.3037 27.4585L28.2129 27.5591L27.4482 28.3306C26.8632 28.9207 26.0828 29.2456 25.252 29.2456H25.2451C24.4637 29.2439 23.7275 28.9551 23.1572 28.4292L23.0449 28.3208L19.7422 24.9595C18.544 23.74 18.5484 21.7615 19.752 20.5474L20.5166 19.7759L20.6143 19.686C20.8515 19.4902 21.1506 19.3814 21.4609 19.3813H21.4639Z" stroke="#FAC800" stroke-width="0.387944"/>
<path d="M21.4639 19.3813L21.5967 19.3882C21.9035 19.4195 22.1919 19.5571 22.4102 19.7788L23.1113 20.4917L23.2021 20.5942C23.596 21.0851 23.5911 21.7893 23.1895 22.2739L23.0967 22.3735C22.6703 22.7933 22.0337 22.8658 21.5332 22.5962C21.4757 22.7647 21.5126 22.964 21.6406 23.0942L24.9434 26.4556L25.0098 26.5112C25.0802 26.559 25.1633 26.5843 25.251 26.5845H25.252C25.288 26.5844 25.3226 26.5782 25.3564 26.5698C24.9109 26.0436 24.9391 25.2559 25.4385 24.7642L25.54 24.6733C26.0659 24.2511 26.8369 24.287 27.3203 24.7778L28.2168 25.689L28.3066 25.7896C28.6977 26.2761 28.6965 26.9734 28.3037 27.4585L28.2129 27.5591L27.4482 28.3306C26.8632 28.9207 26.0828 29.2456 25.252 29.2456H25.2451C24.4637 29.2439 23.7275 28.9551 23.1572 28.4292L23.0449 28.3208L19.7422 24.9595C18.544 23.74 18.5484 21.7615 19.752 20.5474L20.5166 19.7759L20.6143 19.686C20.8515 19.4902 21.1506 19.3814 21.4609 19.3813H21.4639Z" stroke="black" stroke-opacity="0.2" stroke-width="0.387944"/>
<path d="M31.3262 3.82129C34.8113 3.64641 38.2035 4.95125 40.6777 7.42969L40.9141 7.67285C43.2336 10.1269 44.4467 13.416 44.2783 16.793L44.2568 17.1318C44.2028 17.8296 43.62 18.3593 42.9316 18.3594L42.8281 18.3555C42.0954 18.299 41.5469 17.6595 41.6035 16.9268L41.6299 16.3965C41.6861 13.9259 40.8035 11.5334 39.1582 9.69531L38.7939 9.31055C36.9158 7.42896 34.364 6.4097 31.7236 6.46973L31.1943 6.49609C30.5081 6.5491 29.9019 6.07115 29.7822 5.40723L29.7656 5.27246C29.7089 4.53978 30.2565 3.89955 30.9893 3.84277L31.3262 3.82129Z" fill="#FAC800"/>
<path d="M31.3262 3.82129C34.8113 3.64641 38.2035 4.95125 40.6777 7.42969L40.9141 7.67285C43.2336 10.1269 44.4467 13.416 44.2783 16.793L44.2568 17.1318C44.2028 17.8296 43.62 18.3593 42.9316 18.3594L42.8281 18.3555C42.0954 18.299 41.5469 17.6595 41.6035 16.9268L41.6299 16.3965C41.6861 13.9259 40.8035 11.5334 39.1582 9.69531L38.7939 9.31055C36.9158 7.42896 34.364 6.4097 31.7236 6.46973L31.1943 6.49609C30.5081 6.5491 29.9019 6.07115 29.7822 5.40723L29.7656 5.27246C29.7089 4.53978 30.2565 3.89955 30.9893 3.84277L31.3262 3.82129Z" fill="black" fill-opacity="0.2"/>
<path d="M31.3262 3.82129C34.8113 3.64641 38.2035 4.95125 40.6777 7.42969L40.9141 7.67285C43.2336 10.1269 44.4467 13.416 44.2783 16.793L44.2568 17.1318C44.2028 17.8296 43.62 18.3593 42.9316 18.3594L42.8281 18.3555C42.0954 18.299 41.5469 17.6595 41.6035 16.9268L41.6299 16.3965C41.6861 13.9259 40.8035 11.5334 39.1582 9.69531L38.7939 9.31055C36.9158 7.42896 34.364 6.4097 31.7236 6.46973L31.1943 6.49609C30.5081 6.5491 29.9019 6.07115 29.7822 5.40723L29.7656 5.27246C29.7089 4.53978 30.2565 3.89955 30.9893 3.84277L31.3262 3.82129Z" stroke="#FAC800" stroke-width="0.387944"/>
<path d="M31.3262 3.82129C34.8113 3.64641 38.2035 4.95125 40.6777 7.42969L40.9141 7.67285C43.2336 10.1269 44.4467 13.416 44.2783 16.793L44.2568 17.1318C44.2028 17.8296 43.62 18.3593 42.9316 18.3594L42.8281 18.3555C42.0954 18.299 41.5469 17.6595 41.6035 16.9268L41.6299 16.3965C41.6861 13.9259 40.8035 11.5334 39.1582 9.69531L38.7939 9.31055C36.9158 7.42896 34.364 6.4097 31.7236 6.46973L31.1943 6.49609C30.5081 6.5491 29.9019 6.07115 29.7822 5.40723L29.7656 5.27246C29.7089 4.53978 30.2565 3.89955 30.9893 3.84277L31.3262 3.82129Z" stroke="black" stroke-opacity="0.2" stroke-width="0.387944"/>
<path d="M31.9648 8.22119C34.0556 8.22707 36.0762 9.06419 37.5615 10.5522L37.8496 10.856C39.1537 12.3088 39.8803 14.2007 39.8857 16.1548L39.876 16.5747C39.8401 17.2859 39.2521 17.8384 38.5479 17.8384L38.4805 17.8364C37.7465 17.7996 37.181 17.1749 37.2178 16.4409L37.2246 16.1616C37.221 14.8605 36.7368 13.601 35.8691 12.6343L35.6777 12.4321C34.6245 11.3771 33.1658 10.8135 31.6787 10.8882L31.6797 10.8892C30.9896 10.9248 30.3986 10.4296 30.2969 9.76318L30.2832 9.62744C30.2463 8.89342 30.8119 8.26893 31.5459 8.23193L31.9648 8.22119Z" fill="#FAC800"/>
<path d="M31.9648 8.22119C34.0556 8.22707 36.0762 9.06419 37.5615 10.5522L37.8496 10.856C39.1537 12.3088 39.8803 14.2007 39.8857 16.1548L39.876 16.5747C39.8401 17.2859 39.2521 17.8384 38.5479 17.8384L38.4805 17.8364C37.7465 17.7996 37.181 17.1749 37.2178 16.4409L37.2246 16.1616C37.221 14.8605 36.7368 13.601 35.8691 12.6343L35.6777 12.4321C34.6245 11.3771 33.1658 10.8135 31.6787 10.8882L31.6797 10.8892C30.9896 10.9248 30.3986 10.4296 30.2969 9.76318L30.2832 9.62744C30.2463 8.89342 30.8119 8.26893 31.5459 8.23193L31.9648 8.22119Z" fill="black" fill-opacity="0.2"/>
<path d="M31.9648 8.22119C34.0556 8.22707 36.0762 9.06419 37.5615 10.5522L37.8496 10.856C39.1537 12.3088 39.8803 14.2007 39.8857 16.1548L39.876 16.5747C39.8401 17.2859 39.2521 17.8384 38.5479 17.8384L38.4805 17.8364C37.7465 17.7996 37.181 17.1749 37.2178 16.4409L37.2246 16.1616C37.221 14.8605 36.7368 13.601 35.8691 12.6343L35.6777 12.4321C34.6245 11.3771 33.1658 10.8135 31.6787 10.8882L31.6797 10.8892C30.9896 10.9248 30.3986 10.4296 30.2969 9.76318L30.2832 9.62744C30.2463 8.89342 30.8119 8.26893 31.5459 8.23193L31.9648 8.22119Z" stroke="#FAC800" stroke-width="0.387944"/>
<path d="M31.9648 8.22119C34.0556 8.22707 36.0762 9.06419 37.5615 10.5522L37.8496 10.856C39.1537 12.3088 39.8803 14.2007 39.8857 16.1548L39.876 16.5747C39.8401 17.2859 39.2521 17.8384 38.5479 17.8384L38.4805 17.8364C37.7465 17.7996 37.181 17.1749 37.2178 16.4409L37.2246 16.1616C37.221 14.8605 36.7368 13.601 35.8691 12.6343L35.6777 12.4321C34.6245 11.3771 33.1658 10.8135 31.6787 10.8882L31.6797 10.8892C30.9896 10.9248 30.3986 10.4296 30.2969 9.76318L30.2832 9.62744C30.2463 8.89342 30.8119 8.26893 31.5459 8.23193L31.9648 8.22119Z" stroke="black" stroke-opacity="0.2" stroke-width="0.387944"/>
<path d="M32.1494 12.187L32.334 12.2007C33.2528 12.29 34.1108 12.695 34.7666 13.3521L34.8945 13.4858C35.5163 14.1691 35.8817 15.0448 35.9277 15.9712V16.1069C35.8955 16.7356 35.423 17.2582 34.8008 17.353L34.665 17.3667C34.6423 17.3679 34.6197 17.3677 34.5977 17.3677C33.9369 17.3676 33.3785 16.882 33.2822 16.2349L33.2695 16.103C33.2552 15.8157 33.1485 15.5429 32.9658 15.3228L32.8828 15.2319C32.6794 15.0282 32.4181 14.8976 32.1367 14.8569L32.0146 14.8452C31.2806 14.808 30.7157 14.1827 30.7529 13.4487L30.7666 13.313C30.8688 12.6464 31.4621 12.1519 32.1494 12.187Z" fill="#FAC800"/>
<path d="M32.1494 12.187L32.334 12.2007C33.2528 12.29 34.1108 12.695 34.7666 13.3521L34.8945 13.4858C35.5163 14.1691 35.8817 15.0448 35.9277 15.9712V16.1069C35.8955 16.7356 35.423 17.2582 34.8008 17.353L34.665 17.3667C34.6423 17.3679 34.6197 17.3677 34.5977 17.3677C33.9369 17.3676 33.3785 16.882 33.2822 16.2349L33.2695 16.103C33.2552 15.8157 33.1485 15.5429 32.9658 15.3228L32.8828 15.2319C32.6794 15.0282 32.4181 14.8976 32.1367 14.8569L32.0146 14.8452C31.2806 14.808 30.7157 14.1827 30.7529 13.4487L30.7666 13.313C30.8688 12.6464 31.4621 12.1519 32.1494 12.187Z" fill="black" fill-opacity="0.2"/>
<path d="M32.1494 12.187L32.334 12.2007C33.2528 12.29 34.1108 12.695 34.7666 13.3521L34.8945 13.4858C35.5163 14.1691 35.8817 15.0448 35.9277 15.9712V16.1069C35.8955 16.7356 35.423 17.2582 34.8008 17.353L34.665 17.3667C34.6423 17.3679 34.6197 17.3677 34.5977 17.3677C33.9369 17.3676 33.3785 16.882 33.2822 16.2349L33.2695 16.103C33.2552 15.8157 33.1485 15.5429 32.9658 15.3228L32.8828 15.2319C32.6794 15.0282 32.4181 14.8976 32.1367 14.8569L32.0146 14.8452C31.2806 14.808 30.7157 14.1827 30.7529 13.4487L30.7666 13.313C30.8688 12.6464 31.4621 12.1519 32.1494 12.187Z" stroke="#FAC800" stroke-width="0.387944"/>
<path d="M32.1494 12.187L32.334 12.2007C33.2528 12.29 34.1108 12.695 34.7666 13.3521L34.8945 13.4858C35.5163 14.1691 35.8817 15.0448 35.9277 15.9712V16.1069C35.8955 16.7356 35.423 17.2582 34.8008 17.353L34.665 17.3667C34.6423 17.3679 34.6197 17.3677 34.5977 17.3677C33.9369 17.3676 33.3785 16.882 33.2822 16.2349L33.2695 16.103C33.2552 15.8157 33.1485 15.5429 32.9658 15.3228L32.8828 15.2319C32.6794 15.0282 32.4181 14.8976 32.1367 14.8569L32.0146 14.8452C31.2806 14.808 30.7157 14.1827 30.7529 13.4487L30.7666 13.313C30.8688 12.6464 31.4621 12.1519 32.1494 12.187Z" stroke="black" stroke-opacity="0.2" stroke-width="0.387944"/>
<path d="M23.7227 14.2563C29.2072 14.2566 33.6648 18.77 33.665 24.313C33.665 24.5445 33.6541 24.7742 33.6387 25.0015C35.3679 25.4109 36.9396 26.3307 38.127 27.6479L38.3408 27.894C39.3557 29.1103 39.9994 30.5734 40.2109 32.1187C41.175 32.3991 42.0521 32.9253 42.75 33.6577L42.9287 33.854C43.7967 34.8552 44.2724 36.1184 44.2725 37.439C44.2725 40.5064 41.7156 42.9937 38.583 42.9937H10.7949C7.66228 42.9936 5.10547 40.5064 5.10547 37.439C5.10556 34.3716 7.66234 31.8843 10.7949 31.8843H12.4238C12.6736 30.3558 13.3449 28.939 14.3809 27.7554C13.9926 26.6808 13.7793 25.5214 13.7793 24.313C13.7795 18.7699 18.2379 14.2563 23.7227 14.2563ZM33.1133 27.6108C31.761 31.5394 28.0652 34.3694 23.7227 34.3696C20.4766 34.3696 17.5896 32.7888 15.7744 30.3501C15.2934 31.1546 15.0177 32.0594 14.9795 33.0103L14.9746 33.2202C14.9719 33.9532 14.3766 34.5464 13.6436 34.5464H10.7949C9.11772 34.5464 7.76767 35.8517 7.76758 37.439C7.76758 39.0263 9.11766 40.3325 10.7949 40.3325H38.583C40.2602 40.3325 41.6113 39.0263 41.6113 37.439L41.5977 37.1646C41.4687 35.8951 40.4556 34.8295 39.1357 34.5952L38.8486 34.5581C38.2023 34.5046 37.6953 33.9953 37.6338 33.3618L37.6279 33.2339C37.6263 31.924 37.1655 30.6546 36.3242 29.6313L36.1504 29.4302C35.3463 28.5381 34.2854 27.9062 33.1133 27.6108ZM23.7227 16.9185C19.7105 16.9185 16.4406 20.2328 16.4404 24.313C16.4404 28.3933 19.7105 31.7085 23.7227 31.7085C27.7346 31.7082 31.0039 28.3932 31.0039 24.313C31.0037 20.233 27.7346 16.9187 23.7227 16.9185Z" fill="#FAC800"/>
<path d="M23.7227 14.2563C29.2072 14.2566 33.6648 18.77 33.665 24.313C33.665 24.5445 33.6541 24.7742 33.6387 25.0015C35.3679 25.4109 36.9396 26.3307 38.127 27.6479L38.3408 27.894C39.3557 29.1103 39.9994 30.5734 40.2109 32.1187C41.175 32.3991 42.0521 32.9253 42.75 33.6577L42.9287 33.854C43.7967 34.8552 44.2724 36.1184 44.2725 37.439C44.2725 40.5064 41.7156 42.9937 38.583 42.9937H10.7949C7.66228 42.9936 5.10547 40.5064 5.10547 37.439C5.10556 34.3716 7.66234 31.8843 10.7949 31.8843H12.4238C12.6736 30.3558 13.3449 28.939 14.3809 27.7554C13.9926 26.6808 13.7793 25.5214 13.7793 24.313C13.7795 18.7699 18.2379 14.2563 23.7227 14.2563ZM33.1133 27.6108C31.761 31.5394 28.0652 34.3694 23.7227 34.3696C20.4766 34.3696 17.5896 32.7888 15.7744 30.3501C15.2934 31.1546 15.0177 32.0594 14.9795 33.0103L14.9746 33.2202C14.9719 33.9532 14.3766 34.5464 13.6436 34.5464H10.7949C9.11772 34.5464 7.76767 35.8517 7.76758 37.439C7.76758 39.0263 9.11766 40.3325 10.7949 40.3325H38.583C40.2602 40.3325 41.6113 39.0263 41.6113 37.439L41.5977 37.1646C41.4687 35.8951 40.4556 34.8295 39.1357 34.5952L38.8486 34.5581C38.2023 34.5046 37.6953 33.9953 37.6338 33.3618L37.6279 33.2339C37.6263 31.924 37.1655 30.6546 36.3242 29.6313L36.1504 29.4302C35.3463 28.5381 34.2854 27.9062 33.1133 27.6108ZM23.7227 16.9185C19.7105 16.9185 16.4406 20.2328 16.4404 24.313C16.4404 28.3933 19.7105 31.7085 23.7227 31.7085C27.7346 31.7082 31.0039 28.3932 31.0039 24.313C31.0037 20.233 27.7346 16.9187 23.7227 16.9185Z" fill="black" fill-opacity="0.2"/>
<path d="M23.7227 14.2563C29.2072 14.2566 33.6648 18.77 33.665 24.313C33.665 24.5445 33.6541 24.7742 33.6387 25.0015C35.3679 25.4109 36.9396 26.3307 38.127 27.6479L38.3408 27.894C39.3557 29.1103 39.9994 30.5734 40.2109 32.1187C41.175 32.3991 42.0521 32.9253 42.75 33.6577L42.9287 33.854C43.7967 34.8552 44.2724 36.1184 44.2725 37.439C44.2725 40.5064 41.7156 42.9937 38.583 42.9937H10.7949C7.66228 42.9936 5.10547 40.5064 5.10547 37.439C5.10556 34.3716 7.66234 31.8843 10.7949 31.8843H12.4238C12.6736 30.3558 13.3449 28.939 14.3809 27.7554C13.9926 26.6808 13.7793 25.5214 13.7793 24.313C13.7795 18.7699 18.2379 14.2563 23.7227 14.2563ZM33.1133 27.6108C31.761 31.5394 28.0652 34.3694 23.7227 34.3696C20.4766 34.3696 17.5896 32.7888 15.7744 30.3501C15.2934 31.1546 15.0177 32.0594 14.9795 33.0103L14.9746 33.2202C14.9719 33.9532 14.3766 34.5464 13.6436 34.5464H10.7949C9.11772 34.5464 7.76767 35.8517 7.76758 37.439C7.76758 39.0263 9.11766 40.3325 10.7949 40.3325H38.583C40.2602 40.3325 41.6113 39.0263 41.6113 37.439L41.5977 37.1646C41.4687 35.8951 40.4556 34.8295 39.1357 34.5952L38.8486 34.5581C38.2023 34.5046 37.6953 33.9953 37.6338 33.3618L37.6279 33.2339C37.6263 31.924 37.1655 30.6546 36.3242 29.6313L36.1504 29.4302C35.3463 28.5381 34.2854 27.9062 33.1133 27.6108ZM23.7227 16.9185C19.7105 16.9185 16.4406 20.2328 16.4404 24.313C16.4404 28.3933 19.7105 31.7085 23.7227 31.7085C27.7346 31.7082 31.0039 28.3932 31.0039 24.313C31.0037 20.233 27.7346 16.9187 23.7227 16.9185Z" stroke="#FAC800" stroke-width="0.387944"/>
<path d="M23.7227 14.2563C29.2072 14.2566 33.6648 18.77 33.665 24.313C33.665 24.5445 33.6541 24.7742 33.6387 25.0015C35.3679 25.4109 36.9396 26.3307 38.127 27.6479L38.3408 27.894C39.3557 29.1103 39.9994 30.5734 40.2109 32.1187C41.175 32.3991 42.0521 32.9253 42.75 33.6577L42.9287 33.854C43.7967 34.8552 44.2724 36.1184 44.2725 37.439C44.2725 40.5064 41.7156 42.9937 38.583 42.9937H10.7949C7.66228 42.9936 5.10547 40.5064 5.10547 37.439C5.10556 34.3716 7.66234 31.8843 10.7949 31.8843H12.4238C12.6736 30.3558 13.3449 28.939 14.3809 27.7554C13.9926 26.6808 13.7793 25.5214 13.7793 24.313C13.7795 18.7699 18.2379 14.2563 23.7227 14.2563ZM33.1133 27.6108C31.761 31.5394 28.0652 34.3694 23.7227 34.3696C20.4766 34.3696 17.5896 32.7888 15.7744 30.3501C15.2934 31.1546 15.0177 32.0594 14.9795 33.0103L14.9746 33.2202C14.9719 33.9532 14.3766 34.5464 13.6436 34.5464H10.7949C9.11772 34.5464 7.76767 35.8517 7.76758 37.439C7.76758 39.0263 9.11766 40.3325 10.7949 40.3325H38.583C40.2602 40.3325 41.6113 39.0263 41.6113 37.439L41.5977 37.1646C41.4687 35.8951 40.4556 34.8295 39.1357 34.5952L38.8486 34.5581C38.2023 34.5046 37.6953 33.9953 37.6338 33.3618L37.6279 33.2339C37.6263 31.924 37.1655 30.6546 36.3242 29.6313L36.1504 29.4302C35.3463 28.5381 34.2854 27.9062 33.1133 27.6108ZM23.7227 16.9185C19.7105 16.9185 16.4406 20.2328 16.4404 24.313C16.4404 28.3933 19.7105 31.7085 23.7227 31.7085C27.7346 31.7082 31.0039 28.3932 31.0039 24.313C31.0037 20.233 27.7346 16.9187 23.7227 16.9185Z" stroke="black" stroke-opacity="0.2" stroke-width="0.387944"/>
</svg>
