<svg width="49" height="48" viewBox="0 0 49 48" fill="none" xmlns="http://www.w3.org/2000/svg">
<path d="M5.7 28.5L20 42.8C20.4 43.2 20.85 43.5 21.35 43.7C21.85 43.9 22.35 44 22.85 44C23.35 44 23.85 43.9 24.35 43.7C24.85 43.5 25.3 43.2 25.7 42.8L43.35 25.15C43.7167 24.7833 44 24.3583 44.2 23.875C44.4 23.3917 44.5 22.8833 44.5 22.35V8C44.5 6.9 44.1083 5.95833 43.325 5.175C42.5417 4.39167 41.6 4 40.5 4H26.15C25.6167 4 25.1 4.10833 24.6 4.325C24.1 4.54167 23.6667 4.83333 23.3 5.2L5.7 22.85C5.3 23.25 5.00833 23.7 4.825 24.2C4.64167 24.7 4.55 25.2 4.55 25.7C4.55 26.2 4.64167 26.6917 4.825 27.175C5.00833 27.6583 5.3 28.1 5.7 28.5ZM22.85 40L8.55 25.7L26.2 8H40.5V22.3L22.85 40ZM35.5 16C34.6667 16 33.9583 15.7083 33.375 15.125C32.7917 14.5417 32.5 13.8333 32.5 13C32.5 12.1667 32.7917 11.4583 33.375 10.875C33.9583 10.2917 34.6667 10 35.5 10C36.3333 10 37.0417 10.2917 37.625 10.875C38.2083 11.4583 38.5 12.1667 38.5 13C38.5 13.8333 38.2083 14.5417 37.625 15.125C37.0417 15.7083 36.3333 16 35.5 16Z" fill="#FAC800"/>
<path d="M5.7 28.5L20 42.8C20.4 43.2 20.85 43.5 21.35 43.7C21.85 43.9 22.35 44 22.85 44C23.35 44 23.85 43.9 24.35 43.7C24.85 43.5 25.3 43.2 25.7 42.8L43.35 25.15C43.7167 24.7833 44 24.3583 44.2 23.875C44.4 23.3917 44.5 22.8833 44.5 22.35V8C44.5 6.9 44.1083 5.95833 43.325 5.175C42.5417 4.39167 41.6 4 40.5 4H26.15C25.6167 4 25.1 4.10833 24.6 4.325C24.1 4.54167 23.6667 4.83333 23.3 5.2L5.7 22.85C5.3 23.25 5.00833 23.7 4.825 24.2C4.64167 24.7 4.55 25.2 4.55 25.7C4.55 26.2 4.64167 26.6917 4.825 27.175C5.00833 27.6583 5.3 28.1 5.7 28.5ZM22.85 40L8.55 25.7L26.2 8H40.5V22.3L22.85 40ZM35.5 16C34.6667 16 33.9583 15.7083 33.375 15.125C32.7917 14.5417 32.5 13.8333 32.5 13C32.5 12.1667 32.7917 11.4583 33.375 10.875C33.9583 10.2917 34.6667 10 35.5 10C36.3333 10 37.0417 10.2917 37.625 10.875C38.2083 11.4583 38.5 12.1667 38.5 13C38.5 13.8333 38.2083 14.5417 37.625 15.125C37.0417 15.7083 36.3333 16 35.5 16Z" fill="black" fill-opacity="0.2"/>
</svg>
